<svg width="117" height="34" viewBox="0 0 117 34" fill="none" xmlns="http://www.w3.org/2000/svg">
<ellipse opacity="0.2" cx="13" cy="30.5" rx="13" ry="3.5" fill="white"/>
<path fill-rule="evenodd" clip-rule="evenodd" d="M12.5 24C12.5 24 22 16 22 9.5C22 4.25329 17.7467 0 12.5 0C7.25329 0 3 4.25329 3 9.5C3 16.5 12.5 24 12.5 24ZM12.5 13C14.9853 13 17 10.9853 17 8.5C17 6.01472 14.9853 4 12.5 4C10.0147 4 8 6.01472 8 8.5C8 10.9853 10.0147 13 12.5 13Z" fill="white"/>
<path d="M38.372 23.266C36.9787 23.266 35.7753 22.981 34.762 22.411C33.7613 21.841 32.995 21.0367 32.463 19.998C31.931 18.9467 31.665 17.7243 31.665 16.331C31.665 14.963 31.9563 13.7597 32.539 12.721C33.1343 11.6697 33.9577 10.859 35.009 10.289C36.0603 9.719 37.2637 9.434 38.619 9.434C39.303 9.434 39.968 9.50367 40.614 9.643C41.26 9.78233 41.8173 9.97233 42.286 10.213L42.02 12.531C40.918 12.0243 39.7843 11.771 38.619 11.771C37.2003 11.771 36.13 12.189 35.408 13.025C34.686 13.8483 34.325 14.9377 34.325 16.293C34.325 17.699 34.6797 18.8263 35.389 19.675C36.0983 20.511 37.1243 20.929 38.467 20.929C39.0117 20.929 39.6197 20.8593 40.291 20.72V18.345H38.467V16.331H42.723V22.259C42.229 22.5503 41.5957 22.791 40.823 22.981C40.063 23.171 39.246 23.266 38.372 23.266ZM49.2054 23.19C48.1034 23.19 47.1597 22.9683 46.3744 22.525C45.6017 22.069 45.0191 21.4673 44.6264 20.72C44.2464 19.96 44.0564 19.1177 44.0564 18.193C44.0564 17.3063 44.2401 16.4957 44.6074 15.761C44.9747 15.0263 45.5067 14.4437 46.2034 14.013C46.9001 13.5697 47.7297 13.348 48.6924 13.348C49.5791 13.348 50.3264 13.5317 50.9344 13.899C51.5551 14.2663 52.0174 14.7603 52.3214 15.381C52.6381 16.0017 52.7964 16.6983 52.7964 17.471C52.7964 17.851 52.7457 18.2817 52.6444 18.763H46.5074C46.6341 19.599 46.9634 20.226 47.4954 20.644C48.0274 21.0493 48.6671 21.252 49.4144 21.252C50.4404 21.252 51.3904 20.9923 52.2644 20.473L52.3784 22.468C51.9731 22.6833 51.4981 22.8607 50.9534 23C50.4214 23.1267 49.8387 23.19 49.2054 23.19ZM50.4024 17.167C50.4024 16.673 50.2631 16.236 49.9844 15.856C49.7057 15.476 49.2751 15.286 48.6924 15.286C48.1097 15.286 47.6411 15.457 47.2864 15.799C46.9317 16.141 46.6911 16.597 46.5644 17.167H50.4024ZM57.5017 23.19C56.6657 23.19 56.0324 22.9493 55.6017 22.468C55.1711 21.974 54.9557 21.385 54.9557 20.701V15.438H53.6067L53.8157 13.5H54.9557V11.41L57.3117 11.163V13.5H59.4017V15.438H57.3117V19.732C57.3117 20.2387 57.3371 20.5933 57.3877 20.796C57.4511 20.986 57.5714 21.1127 57.7487 21.176C57.9387 21.2267 58.2744 21.252 58.7557 21.252H59.4017L59.1927 23.19H57.5017ZM68.4459 15.723C70.1305 16.2677 70.9729 17.433 70.9729 19.219C70.9729 20.4097 70.5865 21.3407 69.8139 22.012C69.0412 22.6707 67.9835 23 66.6409 23H61.0929V9.7H66.1089C68.6422 9.7 69.9089 10.7703 69.9089 12.911C69.9089 14.2283 69.4212 15.1657 68.4459 15.723ZM63.5249 14.925H65.7479C66.3432 14.925 66.7865 14.8047 67.0779 14.564C67.3692 14.3107 67.5149 13.9243 67.5149 13.405C67.5149 12.8603 67.3692 12.4677 67.0779 12.227C66.7865 11.9863 66.3432 11.866 65.7479 11.866H63.5249V14.925ZM66.2799 20.834C66.9892 20.834 67.5275 20.6947 67.8949 20.416C68.2749 20.1247 68.4649 19.637 68.4649 18.953C68.4649 18.2817 68.2685 17.8067 67.8759 17.528C67.4959 17.2367 66.9639 17.091 66.2799 17.091H63.5249V20.834H66.2799ZM80.7981 13.5V23H78.5941L78.5561 22.43C78.2648 22.6453 77.9291 22.829 77.5491 22.981C77.1691 23.1203 76.8018 23.19 76.4471 23.19C75.0411 23.19 74.0151 22.7847 73.3691 21.974C72.7358 21.1633 72.4191 20.0423 72.4191 18.611V13.5H74.7751V18.611C74.7751 19.4977 74.9208 20.1563 75.2121 20.587C75.5161 21.005 75.9974 21.214 76.6561 21.214C77.3908 21.214 77.9861 20.948 78.4421 20.416V13.5H80.7981ZM85.6955 23.19C85.0875 23.19 84.5302 23.133 84.0235 23.019C83.5295 22.905 83.0165 22.7277 82.4845 22.487L82.6935 20.473C83.2255 20.7897 83.7195 21.0303 84.1755 21.195C84.6442 21.347 85.1255 21.423 85.6195 21.423C86.5822 21.423 87.0635 21.1063 87.0635 20.473C87.0635 20.131 86.9368 19.8713 86.6835 19.694C86.4302 19.504 85.9742 19.2823 85.3155 19.029C84.3782 18.687 83.6878 18.3007 83.2445 17.87C82.8012 17.4267 82.5795 16.8313 82.5795 16.084C82.5795 15.2607 82.8962 14.5957 83.5295 14.089C84.1628 13.5697 85.0178 13.31 86.0945 13.31C87.1712 13.31 88.1528 13.557 89.0395 14.051L88.8305 16.065C88.3492 15.7357 87.8932 15.4823 87.4625 15.305C87.0445 15.1277 86.6012 15.039 86.1325 15.039C85.7272 15.039 85.4105 15.1213 85.1825 15.286C84.9672 15.4507 84.8595 15.685 84.8595 15.989C84.8595 16.2297 84.9228 16.426 85.0495 16.578C85.1888 16.73 85.3788 16.8693 85.6195 16.996C85.8602 17.11 86.2592 17.2747 86.8165 17.49C87.7412 17.8447 88.4062 18.2373 88.8115 18.668C89.2168 19.086 89.4195 19.6497 89.4195 20.359C89.4195 21.2583 89.0965 21.955 88.4505 22.449C87.8045 22.943 86.8862 23.19 85.6955 23.19ZM94.1287 23.19C93.2927 23.19 92.6594 22.9493 92.2287 22.468C91.798 21.974 91.5827 21.385 91.5827 20.701V15.438H90.2337L90.4427 13.5H91.5827V11.41L93.9387 11.163V13.5H96.0287V15.438H93.9387V19.732C93.9387 20.2387 93.964 20.5933 94.0147 20.796C94.078 20.986 94.1984 21.1127 94.3757 21.176C94.5657 21.2267 94.9014 21.252 95.3827 21.252H96.0287L95.8197 23.19H94.1287ZM102.142 23.19C101.04 23.19 100.096 22.9683 99.3109 22.525C98.5383 22.069 97.9556 21.4673 97.5629 20.72C97.1829 19.96 96.9929 19.1177 96.9929 18.193C96.9929 17.3063 97.1766 16.4957 97.5439 15.761C97.9113 15.0263 98.4433 14.4437 99.1399 14.013C99.8366 13.5697 100.666 13.348 101.629 13.348C102.516 13.348 103.263 13.5317 103.871 13.899C104.492 14.2663 104.954 14.7603 105.258 15.381C105.575 16.0017 105.733 16.6983 105.733 17.471C105.733 17.851 105.682 18.2817 105.581 18.763H99.4439C99.5706 19.599 99.8999 20.226 100.432 20.644C100.964 21.0493 101.604 21.252 102.351 21.252C103.377 21.252 104.327 20.9923 105.201 20.473L105.315 22.468C104.91 22.6833 104.435 22.8607 103.89 23C103.358 23.1267 102.775 23.19 102.142 23.19ZM103.339 17.167C103.339 16.673 103.2 16.236 102.921 15.856C102.642 15.476 102.212 15.286 101.629 15.286C101.046 15.286 100.578 15.457 100.223 15.799C99.8683 16.141 99.6276 16.597 99.5009 17.167H103.339ZM116.005 8.75V23H113.782L113.744 22.392C113.377 22.658 112.991 22.8607 112.585 23C112.193 23.1267 111.724 23.19 111.179 23.19C110.255 23.19 109.457 22.9683 108.785 22.525C108.127 22.0817 107.626 21.4863 107.284 20.739C106.942 19.9917 106.771 19.1683 106.771 18.269C106.771 17.3697 106.942 16.5463 107.284 15.799C107.626 15.0517 108.127 14.4563 108.785 14.013C109.457 13.5697 110.255 13.348 111.179 13.348C112.104 13.348 112.927 13.6013 113.649 14.108V8.75H116.005ZM111.521 21.252C112.269 21.252 112.826 20.986 113.193 20.454C113.573 19.922 113.763 19.1937 113.763 18.269C113.763 17.3443 113.573 16.616 113.193 16.084C112.826 15.552 112.269 15.286 111.521 15.286C110.787 15.286 110.21 15.5583 109.792 16.103C109.387 16.6477 109.184 17.3697 109.184 18.269C109.184 19.1683 109.387 19.8903 109.792 20.435C110.21 20.9797 110.787 21.252 111.521 21.252Z" fill="white"/>
</svg>
