<svg width="88" height="54" viewBox="0 0 88 54" fill="none" xmlns="http://www.w3.org/2000/svg">
<path d="M0 27C0 12.0883 12.0883 0 27 0H61C75.9117 0 88 12.0883 88 27C88 41.9117 75.9117 54 61 54H27C12.0883 54 0 41.9117 0 27Z" fill="#13F1FC"/>
<path fill-rule="evenodd" clip-rule="evenodd" d="M47.5925 23.2962C47.5925 27.8781 43.8781 31.5925 39.2962 31.5925C34.7144 31.5925 31 27.8781 31 23.2962C31 18.7144 34.7144 15 39.2962 15C43.8781 15 47.5925 18.7144 47.5925 23.2962ZM46.4865 32.009C44.5332 33.6228 42.0279 34.5925 39.2962 34.5925C33.0575 34.5925 28 29.535 28 23.2962C28 17.0575 33.0575 12 39.2962 12C45.535 12 50.5925 17.0575 50.5925 23.2962C50.5925 25.7211 49.8285 27.9674 48.528 29.8078L59.0496 40.3294L56.9283 42.4507L46.4865 32.009Z" fill="white"/>
</svg>
